<?xml version="1.0" encoding="UTF-8"?><svg id="_Слой_1" xmlns="http://www.w3.org/2000/svg" viewBox="0 0 216.03 167.77"><defs><style>.cls-1{fill:#f79e1b;}.cls-2{fill:#ff5a00;}.cls-3{fill:#eb001b;}</style></defs><path d="M39.15,167.4v-11.13c0-4.26-2.59-7.05-7.05-7.05-2.23,0-4.65,.74-6.31,3.16-1.3-2.03-3.16-3.16-5.95-3.16-1.86,0-3.72,.56-5.19,2.59v-2.23h-3.89v17.81h3.89v-9.84c0-3.16,1.66-4.65,4.26-4.65s3.89,1.66,3.89,4.65v9.84h3.89v-9.84c0-3.16,1.86-4.65,4.26-4.65,2.59,0,3.89,1.66,3.89,4.65v9.84h4.3Zm57.73-17.81h-6.31v-5.38h-3.89v5.38h-3.52v3.52h3.52v8.17c0,4.09,1.66,6.49,6.12,6.49,1.66,0,3.52-.56,4.82-1.3l-1.12-3.35c-1.12,.74-2.42,.93-3.35,.93-1.86,0-2.59-1.12-2.59-2.96v-7.98h6.31v-3.52h.02Zm33.04-.39c-2.23,0-3.72,1.12-4.65,2.59v-2.23h-3.89v17.81h3.89v-10.03c0-2.96,1.3-4.65,3.72-4.65,.74,0,1.66,.19,2.42,.37l1.12-3.72c-.78-.15-1.88-.15-2.62-.15h0Zm-49.92,1.86c-1.86-1.3-4.45-1.86-7.24-1.86-4.45,0-7.42,2.23-7.42,5.75,0,2.96,2.23,4.65,6.12,5.19l1.86,.19c2.03,.37,3.16,.93,3.16,1.86,0,1.3-1.49,2.23-4.09,2.23s-4.65-.93-5.95-1.86l-1.86,2.96c2.03,1.49,4.82,2.23,7.61,2.23,5.19,0,8.17-2.42,8.17-5.75,0-3.16-2.42-4.82-6.12-5.38l-1.86-.19c-1.66-.19-2.96-.56-2.96-1.66,0-1.3,1.3-2.03,3.35-2.03,2.23,0,4.45,.93,5.58,1.49l1.64-3.16h0Zm103.54-1.86c-2.23,0-3.72,1.12-4.65,2.59v-2.23h-3.89v17.81h3.89v-10.03c0-2.96,1.3-4.65,3.72-4.65,.74,0,1.66,.19,2.42,.37l1.12-3.68c-.76-.19-1.86-.19-2.62-.19h0Zm-49.73,9.3c0,5.38,3.72,9.28,9.47,9.28,2.59,0,4.45-.56,6.31-2.03l-1.86-3.16c-1.49,1.12-2.96,1.66-4.65,1.66-3.16,0-5.38-2.23-5.38-5.75s2.23-5.58,5.38-5.75c1.66,0,3.16,.56,4.65,1.66l1.86-3.16c-1.86-1.49-3.72-2.03-6.31-2.03-5.75-.02-9.47,3.89-9.47,9.27h0Zm36,0v-8.91h-3.89v2.23c-1.3-1.66-3.16-2.59-5.58-2.59-5.02,0-8.91,3.89-8.91,9.28s3.89,9.28,8.91,9.28c2.59,0,4.45-.93,5.58-2.59v2.23h3.89v-8.91h0Zm-14.29,0c0-3.16,2.03-5.75,5.38-5.75,3.16,0,5.38,2.42,5.38,5.75,0,3.16-2.23,5.75-5.38,5.75-3.33-.19-5.38-2.62-5.38-5.75h0Zm-46.57-9.3c-5.19,0-8.91,3.72-8.91,9.28s3.72,9.28,9.1,9.28c2.59,0,5.19-.74,7.24-2.42l-1.86-2.79c-1.49,1.12-3.35,1.86-5.19,1.86-2.42,0-4.82-1.12-5.38-4.26h13.17v-1.49c.17-5.73-3.18-9.45-8.17-9.45h0Zm0,3.35c2.42,0,4.09,1.49,4.45,4.26h-9.28c.37-2.4,2.03-4.26,4.82-4.26h0Zm96.68,5.95v-15.96h-3.89v9.28c-1.3-1.66-3.16-2.59-5.58-2.59-5.02,0-8.91,3.89-8.91,9.28s3.89,9.28,8.91,9.28c2.59,0,4.45-.93,5.58-2.59v2.23h3.89v-8.91h0Zm-14.29,0c0-3.16,2.03-5.75,5.38-5.75,3.16,0,5.38,2.42,5.38,5.75,0,3.16-2.23,5.75-5.38,5.75-3.35-.19-5.38-2.62-5.38-5.75h0Zm-130.28,0v-8.91h-3.89v2.23c-1.3-1.66-3.16-2.59-5.58-2.59-5.02,0-8.91,3.89-8.91,9.28s3.89,9.28,8.91,9.28c2.59,0,4.45-.93,5.58-2.59v2.23h3.89v-8.91h0Zm-14.46,0c0-3.16,2.03-5.75,5.38-5.75,3.16,0,5.38,2.42,5.38,5.75,0,3.16-2.23,5.75-5.38,5.75-3.35-.19-5.38-2.62-5.38-5.75Z"/><g><rect id="rect19" class="cls-2" x="78.7" y="14.29" width="58.46" height="105.03"/><path class="cls-3" d="M82.59,66.81c0-21.34,10.03-40.28,25.43-52.52C96.68,5.38,82.39,0,66.81,0,29.88,0,0,29.88,0,66.81s29.88,66.81,66.81,66.81c15.59,0,29.88-5.38,41.21-14.29-15.42-12.06-25.43-31.18-25.43-52.52Z"/><path id="path22" class="cls-1" d="M216.03,66.81c0,36.93-29.88,66.81-66.81,66.81-15.59,0-29.88-5.38-41.21-14.29,15.59-12.26,25.43-31.18,25.43-52.52s-10.03-40.28-25.43-52.52C119.32,5.38,133.61,0,149.2,0c36.95,0,66.83,30.07,66.83,66.81Z"/></g></svg>