<svg xmlns="http://www.w3.org/2000/svg" viewBox="0 0 216.03 133.61">
  <path d="M78.7 14.29h58.46v105.03H78.7z" style="fill:#ff5a00"/>
  <path d="M82.59 66.81c0-21.34 10.03-40.28 25.43-52.52C96.68 5.38 82.39 0 66.81 0 29.88 0 0 29.88 0 66.81s29.88 66.81 66.81 66.81c15.59 0 29.88-5.38 41.21-14.29-15.42-12.06-25.43-31.18-25.43-52.52Z" style="fill:#eb001b"/>
  <path d="M216.03 66.81c0 36.93-29.88 66.81-66.81 66.81-15.59 0-29.88-5.38-41.21-14.29 15.59-12.26 25.43-31.18 25.43-52.52s-10.03-40.28-25.43-52.52C119.32 5.38 133.61 0 149.2 0c36.95 0 66.83 30.07 66.83 66.81Z" style="fill:#f79e1b"/>
</svg>
