<svg xmlns="http://www.w3.org/2000/svg" viewBox="0 0 489.82 133.61" height="40">
  <defs>
    <linearGradient id="a" x1="-703.6" x2="-704.99" y1="595.73" y2="595.73" gradientTransform="matrix(102.67 0 0 -39.67 72729.09 23660.38)" gradientUnits="userSpaceOnUse">
      <stop offset="0" stop-color="#1f5cd7"/>
      <stop offset="1" stop-color="#02aeff"/>
    </linearGradient>
  </defs>
  <path d="M45.29.02c4.38-.03 17.38-1.2 22.89 17.39 3.71 12.52 9.62 33.04 17.73 61.54h3.3c8.7-30.05 14.67-50.57 17.93-61.54C112.71-1.37 126.63.02 132.19.02h42.94v133.59h-43.77V54.88h-2.94l-24.4 78.72H71.09L46.71 54.83h-2.94v78.78H0V.02h45.29Zm192.7 0v78.79h3.49l29.68-64.78C276.92 1.13 289.2.02 289.2.02h42.36v133.59h-44.68V54.83h-3.49l-29.1 64.78c-5.76 12.83-18.62 14-18.62 14h-42.36V.02h44.68ZM486 63.5c-6.23 17.66-25.81 30.31-47.48 30.31h-46.86v39.79h-42.49V63.51H486Z" style="fill:#0f754e;fill-rule:evenodd"/>
  <path d="M440.58.02h-93.63c2.23 29.74 27.84 55.2 54.35 55.2h87.65C494.02 30.51 476.6.02 440.58.02Z" style="fill-rule:evenodd;fill:url(#a)"/>
</svg>
