<svg xmlns="http://www.w3.org/2000/svg" id="_Слой_1" viewBox="0 0 489.11 133.15"><defs><style>.cls-1{fill:#a6ca0a}.cls-26{fill:#21a038}.cls-63{fill:#a4d97f}.cls-72{fill:#75cdad}.cls-145{fill:#6fcbb2}</style></defs><path d="m387.83 39.86 18.09-13.34h-60.54v80.09h60.54V93.27h-43.27v-20.5h36.91V59.44h-36.91V39.86h25.18Zm-88.16 17.88h-21.03V39.86h33.57l18.1-13.35h-68.94v80.1h36.08c20.26 0 31.84-9.17 31.84-25.15s-10.52-23.71-29.62-23.71Zm-3.01 35.52h-18.02v-22.2h18.02c10.97 0 16.07 3.71 16.07 11.1.02 7.54-5.41 11.1-16.07 11.1ZM455 26.5h-32.98v80.11h17.28V83.93H455c21.04 0 34.11-11.06 34.11-28.74S476.03 26.51 455 26.51Zm-.37 44.05h-15.32V39.84h15.32c11.08 0 17.17 5.46 17.17 15.36s-6.12 15.36-17.19 15.36l.02-.02ZM231.7 89.27A30.839 30.839 0 0 1 216.78 93c-15.58 0-26.89-11.12-26.89-26.42s11.31-26.42 26.89-26.42c5.63-.08 11.14 1.64 15.72 4.92l12.39-9.13-.83-.75c-7.24-6.36-16.91-9.72-27.96-9.72-11.99 0-22.88 4.04-30.65 11.39s-12.1 17.78-12.1 29.28 4.29 22.09 12.08 29.69 18.67 11.84 30.58 11.84 23.34-4.34 30.71-12.25l-11.18-8.24-3.83 2.08Z" class="cls-26"/><path d="M60.93.29c.17-.08.44 0 .49-.29h1.68c.56.35 1.26-.13 1.8.3.28.47.3 1.01.22 1.51-.34 2.21-.05 4.46-.47 6.67-.26 1.42-.25 2.86-.37 4.28-.15 1.91-.47 1.69 1.25 2.6-1.34.23-2.7.21-4.06.25-.79.26-.84-.39-.95-.85-.27-1.15-.35-2.33-.4-3.51-.14-1.33.45-2.57.47-3.89.02-1.59-.3-3.16-.17-4.75.07-.8-.2-1.67.5-2.34Z" style="fill:#019af6"/><path d="M70.28 15.53c-1.12-.06-2.23-.13-3.35-.19-.51-.63-.4-1.36-.29-2.06.68-4.07 1.14-8.17 1.38-12.29.02-.36.1-.71.35-.99h.24c.57.2 1.13.2 1.69 0h1.44c.05.28.31.21.48.28.43.47.36 1.04.27 1.59-.7 4.56-1.38 9.12-2.21 13.66Z" style="fill:#0095ef"/><path d="M68.38 0c-.08 4.4-.6 8.75-1.35 13.08-.13.74-.07 1.51-.09 2.26l-1.4.03c-1.84-.05-1.95-.26-1.72-2.47.32-3.03.75-6.04.75-9.1 0-1.18.27-2.36.21-3.55.02-.14.16-.16.24-.25h3.36Z" style="fill:#0097f3"/><path d="M62.14 133.15c0-.07-.01-.14-.02-.21-.18-.38-.13-.78-.14-1.17-.11-3.95.21-7.88.26-11.82 0-.56.06-1.11.26-1.64.2-.53.54-.77 1.11-.52.31 0 .61.02.92.03.26.28.35.63.35.99 0 4.58.15 9.16-.07 13.73-.04.14-.1.26-.19.37-.55.31-1.21-.08-1.76.25h-.72Z" style="fill:#b4cf07"/><path d="M71.03 132.95c0 .07 0 .14-.01.21h-.72c-.4-.33-1.03.13-1.37-.39-.29-.68-.32-1.42-.32-2.12.03-3.8-.7-7.55-.6-11.35.01-.52-.03-1.05.37-1.47.48-.02.96-.03 1.44-.05.34.39.33.87.39 1.35.49 4.14.7 8.31 1.11 12.46.05.49.03.96-.29 1.36Z" class="cls-1"/><path d="M133.39 63.58v5.76c-.16.07-.29.03-.38-.11-.36-1.84-.36-3.69 0-5.53.09-.15.22-.18.38-.11Z" style="fill:#81c9a2"/><path d="M68.86 133.15h-4.32c-.08-.04-.1-.08-.08-.12.02-.04.05-.06.07-.06v-.08c.65-.46 1.39-.3 2.11-.31.72.02 1.45-.12 2.13.21.14.1.17.22.08.37Z" style="fill:#c1d946"/><path d="M65.02 0c-.08.08-.16.17-.24.25C64.22.13 63.6.48 63.1 0h1.92Z" style="fill:#40b2f8"/><path d="M0 65.74c.07-.01.13-.02.2-.01.2.12.27.31.32.53.04.43.07.85-.31 1.17-.07 0-.14 0-.21-.01v-1.68Z" style="fill:#ebf5dc"/><path d="M70.3 0c-.56.38-1.12.37-1.68 0h1.68Z" style="fill:#44b1f4"/><path d="M64.53 132.96v.19h-1.68c.51-.47 1.11-.18 1.67-.19Z" style="fill:#d7e57e"/><path d="m68.86 133.15.03-.2c.05-.1.12-.13.21-.07.39.12.88-.17 1.2.27h-1.44Z" style="fill:#d0e37f"/><path d="M133.39 63.58c-.07 0-.14 0-.21-.01-.37-.4-.37-.8 0-1.19h.21v1.2Z" style="fill:#c4e6d5"/><path d="M133.2 69.35c.07.01.13 0 .2-.02v1.2l-.1.02h-.1c-.38-.4-.39-.8 0-1.2Z" style="fill:#bce2cd"/><path d="M133.2 69.35v1.19c-.02.08-.05.15-.08.23-.47.41-1 .24-1.48.1-4.23-1.25-8.5-2.37-12.69-3.73-1.05-.34-1.18-1.05-.93-1.96 2.95-2.36 6.01-4.57 9.1-6.74.8.14 1.5.55 2.17.96.8.48 1.64.84 2.56.91.87.07 1.3.46 1.25 1.34l.09.72v1.19c0 1.93.01 3.86.02 5.79Z" style="fill:#029346"/><path d="M118.01 65.18c-.14.99.29 1.48 1.28 1.76 4.34 1.21 8.67 2.5 13 3.75.26.08.55.06.82.09.02 1.95-.29 3.86-.66 5.76-.38.33-.82.27-1.24.12-4.3-1.55-8.72-2.67-13.12-3.9a1.21 1.21 0 0 1-.51-.3l.42-7.27Z" style="fill:#059544"/><path d="M117.59 72.45c2.16.17 4.12 1.11 6.21 1.55 2.42.51 4.7 1.44 7.03 2.2.53.17 1.04.4 1.62.33-.11 1.72-.44 3.4-.96 5.05-.4.2-.78.02-1.16-.09-4.22-1.18-8.18-3.11-12.42-4.23-.57-.15-1.21-.37-.85-1.22.17-1.19.34-2.39.52-3.58Z" style="fill:#089642"/><path d="M99.56 21.31c-.89.7-1.76 1.41-2.66 2.1-1.38 1.04-1.39 1.03-2.86-.12-.1-.13-.19-.28-.15-.44.67-2.82.76-5.78 2.16-8.41.86-1.62 1.69-3.25 2.36-4.96.16-.42.28-.96.95-.86 1.22.46 2.22 1.29 3.31 1.98.06 1.02-.41 1.92-.73 2.85-.4 1.16-.83 2.32-1.37 3.42-.7 1.42-.83 2.93-1.01 4.45Z" style="fill:#0c86c4"/><path d="M70.28 15.53c-.61-1.5.24-2.88.42-4.3.45-3.66 1.28-7.26 1.51-10.95 1.38.01 2.74.17 4.08.47.37.42.22.91.16 1.37-.48 3.33-1.16 6.61-1.91 9.89-.21.9-.34 1.81-.51 2.71-.08.43-.13.88-.61 1.1-1.04-.09-2.09-.19-3.13-.28Z" style="fill:#0193ea"/><path d="M130.46 85.65c-.33 1.4-.8 2.76-1.4 4.08-.51.22-.94-.05-1.37-.24-3.98-1.76-7.84-3.79-11.86-5.46-.29-.12-.59-.26-.75-.56.33-1.04.66-2.07.99-3.11.41-.32.84-.17 1.25-.03 4.38 1.57 8.71 3.27 12.96 5.17.07.03.12.1.18.15Z" style="fill:#0f993f"/><path d="M44.62 129.28c-1.32-.38-2.59-.88-3.83-1.47-.35-.42-.1-.83.04-1.24 1.34-4.06 3.02-8 4.3-12.09.13-.41.23-.87.72-1.04.96.39 1.93.79 2.89 1.18.18.36.05.7-.06 1.04-1.47 4.42-2.55 8.96-3.93 13.41-.02.08-.07.14-.11.21Z" style="fill:#d9dc04"/><path d="M93.08 5.55c1.23.24 2.27.91 3.35 1.47 0 1.32-.63 2.45-1.13 3.59-1.41 3.16-2.24 6.54-3.65 9.69-.2.44-.22 1.06-.94 1.03-1.02-.37-1.98-.87-2.91-1.43 1.69-3.85 2.53-7.98 3.95-11.92.31-.87.38-1.91 1.33-2.45Z" style="fill:#0a88cb"/><path d="M115.08 83.47c2.66.84 5.08 2.22 7.62 3.33 2.14.93 4.24 1.95 6.36 2.93a15.34 15.34 0 0 1-1.37 3.39c-.57.2-.99-.18-1.45-.39-3.33-1.54-6.46-3.45-9.73-5.1-.57-.29-1.15-.54-1.73-.81-.38-.17-.88-.33-.59-.95.3-.8.59-1.6.89-2.4Z" style="fill:#139a3d"/><path d="M45.84 113.44c-1.68 4.67-3.36 9.34-5.03 14.01-.04.11-.02.24-.02.36-.97-.44-1.94-.88-2.9-1.31-.32-.53-.02-1.01.16-1.48.97-2.54 1.84-5.11 2.63-7.71.56-1.82 1.13-3.65 2.27-5.23 1.05.28 1.95.86 2.9 1.36Z" style="fill:#dede05"/><path d="M124.96 98.6c-.37 1.07-.97 2.01-1.68 2.88-.33.26-.62.07-.87-.11-3.95-2.76-8.02-5.36-11.84-8.3.57-1.03 1.15-2.06 1.72-3.09 2.8 2.1 5.75 3.99 8.74 5.82 1.05.64 2.09 1.32 3.15 1.94.35.2.69.42.78.85Z" style="fill:#1f9e38"/><path d="M124.96 98.6c-2.63-1.64-5.26-3.3-7.91-4.92-1.53-.94-2.85-2.17-4.47-2.97-.31-.16-.3-.44-.3-.72.22-.7.56-1.33.95-1.94.51-.35.93 0 1.31.24 3.61 2.2 7.36 4.13 10.99 6.29.41.25.82.49 1.09.91-.37 1.14-1.05 2.11-1.67 3.11Z" style="fill:#199c3a"/><path d="M90.71 21.34c.58-.31.54-.94.73-1.44 1.54-4.04 3.08-8.09 4.62-12.14.1-.26.25-.5.38-.75 1.02.45 2.04.92 2.94 1.59-.13.09-.32.16-.37.28-1.65 4.08-4.21 7.84-4.49 12.43-.04.66-.3 1.31-.46 1.96-1.11-.65-2.22-1.29-3.34-1.94Z" style="fill:#0b87c7"/><path d="M17.76 111.56c-.85-.91-1.77-1.76-2.42-2.83-.11-.54.36-.66.65-.87 3.12-2.28 6.58-4.05 9.77-6.23.73-.5 1.29-1.34 2.31-1.34.63.58 1.25 1.16 1.67 1.92-1.27 1.7-3.21 2.57-4.8 3.88-2.32 1.92-4.66 3.82-7.19 5.47Z" style="fill:#ede618"/><path d="M43.91 4.1c1.08-.51 2.21-.84 3.36-1.15.72 1.01 1.24 2.16 1.59 3.31 1.01 3.37 2.31 6.61 3.78 9.79.18.38.47.77.15 1.22-.79.25-1.58.49-2.37.74-.51.13-.61-.31-.72-.61-1.56-4.15-3.82-7.97-5.69-11.98-.2-.42-.49-.86-.1-1.33Z" style="fill:#0ba5fa"/><path d="M43.91 4.1c.04 1.08.67 1.98 1.13 2.86 1.85 3.49 3.64 7.01 5.07 10.7.05.14.2.24.3.36-.86.4-1.74.75-2.67.96-.39-.11-.57-.44-.7-.77-1.59-4.07-4.08-7.68-5.84-11.66-.19-.42-.52-.84-.21-1.34.93-.46 1.89-.86 2.91-1.11Z" style="fill:#0fa7f8"/><path d="M33.11 123.95c-1.26-.67-2.48-1.41-3.6-2.31-.46-.78.22-1.22.52-1.77 2.3-3.32 5.17-6.2 7.26-9.68.25-.41.47-.97 1.16-.81.31.42.94.46 1.18.97-2.02 4.15-3.71 8.46-5.67 12.64-.19.4-.4.79-.84.97Z" style="fill:#e7e108"/><path d="M44.62 129.28c-.36-.96.26-1.76.51-2.59 1.19-4.02 2.1-8.14 3.6-12.07.75.16 1.47.39 2.14.75.44.87.03 1.72-.13 2.55-.64 3.33-1.61 6.57-2.38 9.87-.2.84-.19 1.76-.86 2.44-1-.21-1.95-.54-2.88-.95Z" style="fill:#d4da04"/><path d="M99.56 21.31c-.56-1.55.08-2.93.63-4.33.83-2.13 1.65-4.26 2.48-6.39 1.93 1.07 3.63 2.45 5.38 3.77.35.26.49.46.03.79-2.85 2.03-5.57 4.26-8.52 6.15Z" style="fill:#0e86c0"/><path d="M12.23 104.63c-.76-.88-1.39-1.86-1.92-2.9-.12-.51.32-.59.61-.75 4-2.25 8.2-4.12 12.21-6.36.18-.1.37-.16.57-.09.57.67 1.1 1.36 1.5 2.14-.41.92-1.32 1.25-2.09 1.7-2.74 1.57-5.54 3.02-8.31 4.53-.92.5-1.78 1.05-2.58 1.72Z" style="fill:#e9e625"/><path d="M73.42 15.81c.64-3.08 1.31-6.16 1.91-9.25.38-1.93.65-3.88.97-5.82 1.16.32 2.41.14 3.54.6a260.55 260.55 0 0 0-3.07 13.21c-.13.61-.11 1.29-.71 1.71l-2.64-.45Z" style="fill:#0290e4"/><path d="M93.08 5.55c-1.42 2.99-2.18 6.21-3.13 9.36-.48 1.59-1.12 3.14-1.69 4.7-.08.22-.26.28-.47.31-.73-.29-1.45-.59-2.18-.88-.27-.43-.08-.85.05-1.26 1.36-4.04 2.55-8.14 3.98-12.16.17-.48.13-1.32 1.08-1.07.88.12 1.59.61 2.35 1.01Z" style="fill:#088ad0"/><path d="M30.23 119.96c-.17.59-.81.98-.72 1.68-1.29-.75-2.49-1.62-3.61-2.6-.31-.57.11-.9.44-1.22.9-.87 1.55-1.89 2.07-3.01.32-.69.74-1.31 1.3-1.82.7-.62 1.05-1.48 1.47-2.27.91-1.47 2.41-2.38 3.49-3.68.11-.13.27-.15.43-.07l.18.25c.18.81-.37 1.43-.6 2.13-.93 2.87-2.08 5.65-3.23 8.44-.32.78-.83 1.44-1.22 2.17Z" style="fill:#eae30b"/><path d="M17.76 111.56c.86-1.3 2.35-1.84 3.46-2.84 2.53-2.27 5.48-4 7.99-6.3.13-.12.36-.14.54-.21.61.66 1.45 1.07 1.96 1.84.15.72-.43.93-.86 1.24-1.32.82-2.42 1.92-3.75 2.74-2.64 1.63-5.18 3.41-7.68 5.25-.55-.58-1.11-1.15-1.66-1.73Z" style="fill:#ede514"/><path d="M110.57 93.08c1.43.39 2.42 1.46 3.58 2.27 3.02 2.09 6.01 4.21 9.13 6.14-.38.99-1.01 1.82-1.66 2.63-.47.14-.74-.22-1.05-.44-3.69-2.65-7.06-5.72-10.86-8.22a.77.77 0 0 1-.35-.46c.32-.69.72-1.33 1.21-1.91Z" style="fill:#23a036"/><path d="M12.23 104.63c.08-.88.87-1.12 1.45-1.45 2.74-1.54 5.49-3.05 8.28-4.51 1.13-.59 2.17-1.32 3.25-2 .52.61 1.11 1.16 1.41 1.93-.21.58-.76.81-1.22 1.09-3.54 2.15-7.1 4.25-10.57 6.5-.35.23-.7.57-1.19.35-.58-.55-1.01-1.22-1.39-1.92Z" style="fill:#ebe61f"/><path d="M13.62 106.55c3.07-1.89 6.14-3.78 9.22-5.67 1.25-.77 2.51-1.51 3.77-2.27.4.64 1.14.97 1.47 1.67-2.71 1.92-5.43 3.81-8.35 5.41-1.55.85-2.93 2.01-4.38 3.02-.64-.67-1.31-1.32-1.72-2.17Z" style="fill:#ece61d"/><path d="M33.11 123.95c2.12-4.06 3.6-8.4 5.69-12.48.21-.42.32-.92.82-1.13.96.08 1.65.71 2.4 1.2-1.68 3.52-3.49 6.98-5.04 10.56-.47 1.09-.94 2.2-1.97 2.92-.63-.36-1.27-.72-1.9-1.08Z" style="fill:#e4e007"/><path d="M47.5 130.23c.83-3.48 1.67-6.95 2.48-10.43.34-1.47.6-2.95.89-4.43.84.14 1.64.39 2.42.73.02 1.08-.24 2.13-.47 3.18-.77 3.54-1.38 7.1-2.2 10.63-.09.38-.15.79-.49 1.06-.91-.15-1.79-.37-2.64-.73Z" style="fill:#cfd804"/><path d="M52.78 17.27c-1.22-3.15-2.93-6.11-3.71-9.42-.41-1.72-1.57-3.14-1.8-4.9.96-.27 1.87-.7 2.88-.77.92 1.82 1.43 3.78 2.09 5.69.9 2.59 1.2 5.36 2.23 7.92.13.33.19.7 0 1.05-.56.15-1.13.29-1.69.44Z" style="fill:#08a3fa"/><path d="M76.05 16.26c.96-4.37 1.91-8.75 2.9-13.11.15-.65.03-1.49.89-1.81.84.11 1.68.22 2.47.57-1.39 4.59-2.35 9.3-3.57 13.93-.08.31-.1.63-.28.91-.8-.16-1.6-.33-2.39-.49Z" style="fill:#038fe0"/><path d="M109.36 94.99c2.75 1.52 5.08 3.63 7.57 5.51 1.58 1.19 3.13 2.41 4.69 3.62-.37.87-1.08 1.5-1.62 2.26-1.56-.69-2.65-2.02-3.96-3.04-2.38-1.86-4.6-3.93-7.06-5.7-.43-.31-.84-.65-.58-1.28.23-.51.55-.96.95-1.36Z" style="fill:#28a134"/><path d="M55.65 132.14c-1.06-.13-2.11-.28-3.12-.64-.4-.51-.19-1.07-.1-1.61.6-3.7 1.36-7.38 1.75-11.12.08-.79-.03-1.8 1.03-2.18.75.38 1.65.06 2.4.48-.76 2.04-.78 4.21-1.07 6.32-.33 2.44-.49 4.9-.88 7.33-.08.48.08.95 0 1.42Z" style="fill:#c6d504"/><path d="M30.71 105.08c.43-.25.78-.58.99-1.04l3.4 2.92c-1.09 1.42-2.68 2.37-3.67 3.88-1.05 1.53-2.79 1.84-4.37 2.39-.83.29-1.49 1.15-2.51.84-.41-.66.13-1.04.48-1.41.6-.64 1.18-1.29 1.57-2.07 1.04-2.08 2.79-3.63 4.11-5.51Z" style="fill:#ece40f"/><path d="M126.63 95.49c-3.96-2.25-7.92-4.5-11.88-6.76-.48-.27-.94-.6-1.51-.68.23-.76.54-1.49.95-2.18 0 .32.21.5.49.61 4.36 1.82 8.28 4.5 12.59 6.42.14.06.28.14.43.21-.36.79-.71 1.58-1.07 2.37Z" style="fill:#169b3c"/><path d="M78.45 16.76c-.38-.47-.05-.94.05-1.37 1-4.13 2.04-8.25 3.09-12.37.11-.42.06-1.01.71-1.11.67.03 1.31.18 1.91.48.18.61-.02 1.19-.16 1.76-.98 3.99-2.1 7.94-3.1 11.93-.11.42-.19.87-.57 1.15l-1.93-.49Z" style="fill:#048edc"/><path d="M6.43 94.54c-.43-.67-.75-1.39-.95-2.16.25-.6.86-.68 1.35-.88 3.87-1.56 7.85-2.82 11.77-4.23.42-.15.84-.29 1.23.06.25.56.51 1.12.76 1.68-.68.81-1.7 1.01-2.61 1.37-3.4 1.35-6.8 2.7-10.21 4.04-.43.17-.88.43-1.36.12Z" style="fill:#dee537"/><path d="M30.48 10.81c.65-.57 1.39-.99 2.15-1.37 1.11 1.25 2 2.67 2.95 4.04 1.62 2.36 3.32 4.66 4.91 7.05.33.49.7.97.82 1.57-.49.41-1.04.73-1.63.97-.55.24-.83-.13-1.06-.51-2.35-3.72-5.34-6.99-7.71-10.69-.21-.32-.57-.59-.43-1.06Z" style="fill:#20b0f0"/><path d="M34.79 8.21c.62-.37 1.2-.81 1.93-.97 1.13.7 1.64 1.92 2.27 2.98 1.73 2.9 3.31 5.88 5.19 8.69.29.43.57.85.91 1.24-.69.33-1.38.67-2.07 1-.58.16-.78-.32-.99-.66-2.25-3.7-4.7-7.28-6.98-10.97-.23-.38-.6-.79-.26-1.31Z" style="fill:#18adf4"/><path d="M108.41 96.35c.35 1.38 1.75 1.64 2.64 2.43 2.93 2.6 6.08 4.93 8.96 7.59-.32.6-.73 1.13-1.23 1.6-.65.35-1.07-.11-1.46-.47-2.94-2.73-6.06-5.27-9.08-7.9-.48-.42-1.28-.77-.98-1.69l1.16-1.56Z" style="fill:#2ca333"/><path d="M35.01 125.03c2.17-3.97 4.18-8.01 5.88-12.21.22-.53.45-1.12 1.13-1.28.31.18.61.35.92.53-1.77 4.27-2.89 8.77-4.62 13.06-.18.44-.3.91-.44 1.36-.96-.49-1.91-.98-2.87-1.46Z" style="fill:#e1df05"/><path d="M55.21 116.58c-.89 1.2-.77 2.66-.93 4-.41 3.47-1.11 6.89-1.72 10.32-.03.19-.02.4-.03.6-.81-.11-1.64-.14-2.39-.54.18-2.09.9-4.08 1.21-6.14.4-2.65 1.19-5.22 1.53-7.89.04-.28.09-.64.41-.83.6.3 1.33.09 1.91.48Z" style="fill:#cbd704"/><path d="M34.79 8.21c.66 1.82 1.9 3.3 2.91 4.91 1.44 2.29 2.87 4.59 4.33 6.86.27.42.45.95.98 1.17-.5.43-1.09.72-1.71.95-1.15-1.16-1.82-2.66-2.8-3.95-1.98-2.62-3.82-5.35-5.7-8.04-.12-.18-.12-.44-.18-.67.68-.48 1.38-.92 2.16-1.23Z" style="fill:#1caef2"/><path d="M117.07 76.04c-.1.76.53.81.99.94 4.58 1.24 8.9 3.24 13.44 4.6-.19.79-.37 1.59-.56 2.38-1.05.19-1.98-.29-2.84-.7-3.42-1.62-6.98-2.87-10.57-4.06-.39-.13-1-.11-.96-.8.06-.81.22-1.6.5-2.36Z" style="fill:#0b9741"/><path d="M41 5.21c1.2 2.9 2.61 5.7 4.23 8.39 1.03 1.71 1.57 3.64 2.52 5.38-.48.43-1.13.47-1.68.71-.72-.62-1-1.53-1.4-2.33-1.65-3.33-3.94-6.28-5.67-9.56-.25-.47-.73-.9-.37-1.52.79-.35 1.58-.71 2.37-1.06Z" style="fill:#12aaf8"/><path d="M79.72 131.75c-.86.31-1.75.46-2.66.47-.74-.03-.73-.65-.81-1.11-.73-4.11-1.61-8.19-2.15-12.33-.07-.52-.11-1.03.26-1.48.69-.29 1.43-.3 2.15-.42.52 3.86 1.49 7.63 2.12 11.47.19 1.17.51 2.33 1.08 3.39Z" style="fill:#95c50e"/><path d="M6.43 94.54c2.95-.95 5.76-2.26 8.64-3.36 1.85-.71 3.69-1.45 5.53-2.17.24.68.85 1.17.95 1.92-.22.25-.5.4-.79.52-4.06 1.65-8.04 3.5-12.16 5.01-.38.14-.74.3-1.16.21-.45-.65-.75-1.38-1.02-2.12Z" style="fill:#e1e533"/><path d="M101 123.55c-.65.53-1.36.94-2.14 1.23-1.08-.85-1.46-2.15-2.12-3.27-1.8-3.02-3.31-6.2-5-9.28-.15-.27-.35-.56-.09-.88.56-.32 1.12-.65 1.68-.97.94 1.1 1.59 2.38 2.28 3.62 1.59 2.85 3.32 5.62 4.93 8.46.19.34.44.67.46 1.09Z" style="fill:#60b41f"/><path d="M23.7 94.54c-2.52 1.75-5.41 2.82-8.08 4.29-1.77.97-3.54 1.94-5.31 2.9-.5-.59-.88-1.25-1.18-1.96-.27-.7.34-.75.71-.96 2.04-1.18 4.25-1.99 6.41-2.89 1.77-.74 3.44-1.66 5.17-2.48.42-.2.82-.53 1.34-.34.35.46.8.85.93 1.45Z" style="fill:#e7e629"/><path d="M111.6 115.65c-.46.58-1.02 1.05-1.64 1.45-.62.28-.87-.23-1.16-.57a95.13 95.13 0 0 1-4.65-5.76c-1.09-1.48-2.5-2.68-3.49-4.24-.25-.38-.7-.71-.39-1.27.41-.37.82-.73 1.23-1.1 1.38.56 2.02 1.89 2.92 2.91 2.31 2.62 4.56 5.3 6.83 7.96.15.18.32.36.35.61Z" style="fill:#43aa29"/><path d="M21.58 17.73c.51-.71 1.23-1.18 1.92-1.69 2.63 2.89 5.38 5.66 7.95 8.6.78.89 1.86 1.53 2.31 2.7-.27.64-1.06.66-1.42 1.2-.58.09-.85-.37-1.17-.69-2.99-2.97-5.97-5.95-8.94-8.94-.32-.32-.8-.58-.65-1.17Z" style="fill:#35b9e2"/><path d="M101 123.55c-1.04-1.25-1.71-2.73-2.54-4.11-1.62-2.67-3.17-5.38-4.74-8.08-.18-.3-.26-.66-.39-.99.48-.31.97-.62 1.45-.93 1.15.88 1.59 2.25 2.36 3.4 1.75 2.62 3.45 5.29 5.05 8 .29.49.77.81 1.05 1.29-.68.57-1.42 1.06-2.24 1.4Z" style="fill:#5bb221"/><path d="M54.48 16.83c-1.11-2.68-1.51-5.57-2.4-8.31-.51-1.58-1.06-3.15-1.59-4.73-.17-.52-.41-1.04-.34-1.62.24-.07.48-.14.72-.22.41.37.51.89.66 1.38.37 1.19.79 2.32 1.9 3.06.41.27.61.74.72 1.21.32 1.38.87 2.62 1.96 3.56.49.83.67 1.78 1.01 2.66.27.78.31 1.65.96 2.26l-3.6.75Z" style="fill:#06a1f9"/><path d="M103.24 122.15c-.49-.04-.79-.33-1.03-.73-2.38-4.05-5.14-7.87-7.44-11.97.48-.32.95-.65 1.43-.97 1.26 1.02 1.97 2.48 2.91 3.74 1.85 2.48 3.53 5.09 5.18 7.71.24.38.66.75.33 1.29-.4.4-.85.74-1.39.93Z" style="fill:#56b023"/><path d="M100.27 105.28c.24.96.95 1.66 1.57 2.33 2.7 2.91 4.87 6.23 7.53 9.16.18.19.35.31.6.34-.51.56-1.06 1.05-1.73 1.42-.59.31-.89-.13-1.17-.5-2.71-3.42-5.22-7-7.9-10.45-.24-.31-.5-.64-.33-1.08.48-.41.95-.82 1.43-1.23Z" style="fill:#49ac27"/><path d="M19.84 87.33c-1.43.19-2.74.77-4.08 1.26-3.43 1.26-6.92 2.35-10.29 3.79-.34-.52-.59-1.07-.68-1.69-.28-.89.46-.99.98-1.17 2.41-.84 4.8-1.74 7.26-2.41 1.54-.42 3-1.09 4.53-1.53.45-.13.89-.39 1.38-.17.3.64.59 1.28.89 1.92Z" style="fill:#dbe43c"/><path d="M80.37 17.25 84.21 2.4c.68.04 1.3.28 1.92.53.5.26.34.68.22 1.05-1.29 4.12-2.24 8.33-3.56 12.44-.16.49-.26 1.02-.75 1.33-.56-.16-1.12-.33-1.68-.49Z" style="fill:#058cd9"/><path d="M69.1 132.89c-.07.03-.14.05-.21.07-.73-.02-1.46-.04-2.18-.05-.33-.34-.38-.78-.37-1.22.11-4.09-.22-8.17-.25-12.26 0-.55-.06-1.13.38-1.58.64 0 1.28 0 1.92-.01-.29 4.13.66 8.21.53 12.35-.03.88.2 1.8.19 2.71Z" style="fill:#aacc09"/><path d="M82.05 17.74c1.35-4.63 2.7-9.27 4.04-13.9.08-.29.26-.6.04-.91l2.37.75c.13.37-.02.71-.14 1.05C86.91 8.76 86 12.95 84.64 17c-.17.51-.14 1.24-.98 1.27-.58-.05-1.11-.26-1.62-.53Z" style="fill:#068cd6"/><path d="M66.46 117.84c-.03 5.02.41 10.04.24 15.06-.72 0-1.44 0-2.17-.01v-15.07c.64 0 1.28.02 1.92.03Z" style="fill:#afcd08"/><path d="M55.65 132.14c-1.06-.9-.19-1.95-.13-2.87.16-2.59.55-5.17.86-7.75.15-1.25.33-2.5.53-3.74.06-.35.24-.68.69-.71.49 0 .99-.02 1.43.24.31 1.8-.23 3.55-.38 5.32-.23 2.77-.46 5.53-.9 8.28-.09.55-.12 1.12-.65 1.47-.48-.08-.97-.16-1.45-.23Z" style="fill:#c1d405"/><path d="M18.95 85.41c-2.69.93-5.37 1.92-8.11 2.69-1.83.51-3.59 1.24-5.4 1.85-.39.13-.62.32-.64.74-.47-.83-.75-1.72-.97-2.64.43-.61 1.14-.7 1.78-.87 3.91-1.07 7.79-2.23 11.66-3.42.37-.11.75-.31 1.14-.02.19.56.57 1.05.54 1.68Z" style="fill:#d8e440"/><path d="M94.59 126.95a7.3 7.3 0 0 1-2.18.95c-.6.11-.6-.43-.74-.74-1.75-3.88-3.25-7.87-4.94-11.78-.21-.48-.53-1.02-.12-1.58.47-.2.94-.41 1.41-.61.43.14.6.52.76.88 1.96 4.28 3.97 8.54 5.8 12.89Z" style="fill:#70b919"/><path d="M104.63 121.22c-1.15-2.21-2.61-4.23-3.98-6.31-1.43-2.18-3.15-4.15-4.44-6.43.47-.35.95-.7 1.42-1.04.39.07.61.36.82.64 2.78 3.62 5.27 7.47 8.06 11.08.12.16.21.34.23.54-.63.6-1.33 1.11-2.11 1.51Z" style="fill:#51af24"/><path d="M18.41 83.73 3.83 88.05c-.4-.67-.56-1.41-.7-2.16.32-.41.81-.48 1.27-.6 4.03-1.12 8.1-2.08 12.11-3.29.42-.13.84-.29 1.25.05.34.51.5 1.1.65 1.68Z" style="fill:#d5e345"/><path d="M79.72 131.75c-.89-.18-.87-1-.99-1.6-.61-2.86-1.15-5.74-1.72-8.62-.19-.93-.39-1.86-.61-2.79-.15-.63-.22-1.25.12-1.85l1.21-.25c.78.65.78 1.61 1.01 2.48.88 3.42 1.51 6.91 2.45 10.31.18.66.43 1.27.87 1.8-.75.31-1.53.48-2.34.51Z" style="fill:#8fc310"/><path d="M83.68 18.26c.6-.5.58-1.26.82-1.92 1.34-3.81 2.12-7.79 3.54-11.58.14-.37.32-.72.48-1.08.77.22 1.53.44 2.23.86-.49 0-.54.41-.64.74-1.49 4.58-2.98 9.17-4.47 13.76-.65-.26-1.3-.52-1.94-.78Z" style="fill:#078bd3"/><path d="M114.47 112.84c-.39.54-.86 1-1.4 1.4-.59.18-.88-.29-1.18-.62-2.56-2.86-5.23-5.64-7.72-8.57-.53-.63-1.26-1.11-1.58-1.92.33-.47.73-.87 1.2-1.2.6-.18.87.31 1.19.63 3.08 3.01 5.99 6.2 9.02 9.27.27.27.63.53.46 1.02Z" style="fill:#3ba82c"/><path d="M30.48 10.81c2.59 3.88 5.66 7.42 8.2 11.34.25.38.42.89 1.01.92-.54.41-1.02.93-1.76.96-1.33-1.04-2.34-2.38-3.28-3.73-1.7-2.47-3.73-4.66-5.44-7.11-.26-.37-.76-.65-.43-1.23.51-.47 1.06-.88 1.7-1.14Z" style="fill:#24b2ed"/><path d="M107.25 97.9c.5 1.42 1.88 1.99 2.87 2.91 2.32 2.15 4.77 4.17 7.14 6.26.45.4.87.82 1.51.89-.49.56-.98 1.12-1.47 1.67-.46.32-.76-.03-1.03-.3-3.1-3.02-6.44-5.78-9.54-8.8-.31-.3-.66-.58-.8-1.02.43-.54.87-1.08 1.3-1.62Z" style="fill:#30a431"/><path d="M38.63 6.27c.96 2.33 2.41 4.37 3.74 6.49 1.4 2.22 2.69 4.5 3.7 6.93-.27.27-.62.39-.98.46-.41.05-.63-.16-.84-.5-1.87-3.04-3.72-6.1-5.45-9.22-.61-1.11-1.38-2.13-2.07-3.19.57-.45 1.23-.73 1.91-.97Z" style="fill:#15abf6"/><path d="M86.61 113.79c.36 1.99 1.41 3.71 2.15 5.55 1.15 2.88 2.19 5.8 3.64 8.55-.49.45-1.18.4-1.73.7-1.02.21-1.02-.7-1.23-1.24-1.02-2.55-1.8-5.2-2.88-7.73-.56-1.32-1.14-2.64-1.56-4.01-.11-.37-.38-.73-.09-1.13l1.68-.69Z" style="fill:#75bb18"/><path d="M116.57 78.4c1.04.68 2.24.95 3.41 1.28 3.79 1.08 7.21 3.09 10.96 4.28l-.48 1.69c-1.56-.1-2.84-.97-4.22-1.56-3.11-1.32-6.31-2.42-9.47-3.62-.22-.08-.47-.08-.7-.12.05-.68.22-1.33.5-1.95Z" style="fill:#0c9741"/><path d="M63.62 117.78c-1.24.11-.96 1.15-.97 1.82-.04 3.98-.44 7.96-.27 11.95.02.48 0 .96-.26 1.39-.24-.03-.48-.06-.72-.08-.91 0-1.64-.17-1.54-1.38.36-4.27.39-8.56.93-12.81.05-.4.09-.79.38-1.1.82 0 1.64-.03 2.44.21Z" style="fill:#b9d106"/><path d="M102.6 103.13c1.41.94 2.24 2.43 3.42 3.6 2.44 2.42 4.43 5.26 7.06 7.51-.4.57-.91 1.02-1.48 1.42-1.69-1.34-2.93-3.12-4.3-4.73-1.92-2.26-3.89-4.48-5.81-6.74l1.11-1.05Z" style="fill:#3fa92b"/><path d="M105.95 99.53c1.15.73 2.08 1.74 3.02 2.68 2.39 2.4 5.15 4.4 7.45 6.89.24.26.48.55.89.54-.22.62-.68 1.05-1.18 1.44-.52.33-.82-.09-1.13-.37-1.44-1.27-2.89-2.52-4.19-3.94-1.62-1.77-3.53-3.24-5.19-4.96-.33-.34-.88-.65-.54-1.29.29-.33.58-.66.87-1Z" style="fill:#33a530"/><path d="M21.58 17.73c1.67 1.98 3.6 3.7 5.41 5.54 1.76 1.78 3.56 3.52 5.35 5.27-.21.6-.82.78-1.22 1.19-.62.06-.9-.44-1.25-.79-2.92-2.93-5.94-5.77-9.01-8.55-.36-.32-.89-.6-.73-1.25.48-.47.97-.94 1.45-1.41Z" style="fill:#39badf"/><path d="M17.76 82.05c-3.1.83-6.22 1.64-9.31 2.51-1.76.49-3.52.98-5.31 1.33-.3-.6-.5-1.23-.53-1.91.7-.78 1.73-.73 2.62-.96 3.5-.91 7.06-1.53 10.55-2.49.58-.16 1.25-.45 1.7.31.13.39.36.77.29 1.21Z" style="fill:#d2e349"/><path d="M105.08 100.52c.38 1.12 1.34 1.79 2.17 2.47 1.76 1.46 3.27 3.16 4.9 4.73 1.25 1.21 2.47 2.45 3.97 3.36-.47.66-1 1.27-1.65 1.76-.14-.19-.25-.41-.42-.58-3.11-3.2-6.22-6.39-9.34-9.58-.28-.28-.61-.51-.91-.76.43-.47.85-.94 1.28-1.41Z" style="fill:#37a62e"/><path d="M20.13 19.14c1.67 1.64 3.27 3.37 5.04 4.9 1.76 1.51 3.31 3.22 4.99 4.8.32.3.64.6.96.89-.19.44-.54.71-.93.97-.4.32-.69.02-.93-.22-3.13-3.03-6.58-5.69-9.7-8.73-.37-.36-.95-.69-.62-1.4.35-.45.69-.91 1.19-1.21Z" style="fill:#3dbcdc"/><path d="M14.36 25.62c.28-.64.8-1.09 1.24-1.61 1.84.91 3.29 2.35 4.83 3.65 2.01 1.69 4.14 3.22 6.17 4.89.36.3.83.5.94 1.03-.32.4-.65.8-.97 1.19-1.05-.21-1.82-.91-2.63-1.52-2.88-2.19-5.81-4.31-8.68-6.51-.38-.29-.96-.46-.9-1.12Z" style="fill:#4bc0d1"/><path d="M.95 75.85c-.34-.6-.21-1.27-.24-1.91-.27-.75-.08-1.23.78-1.33 4.19-.48 8.39-.8 12.6-.99.61-.03 1.31-.13 1.69.58.08.64.16 1.28.25 1.91-1.41-.61-2.81-.2-4.22 0-3.04.43-6.11.59-9.15 1-.65.09-1.24.25-1.71.73Z" style="fill:#bedf62"/><path d="M.95 75.85c-.05-.66.15-.93.91-1.02 3.88-.5 7.81-.65 11.67-1.34.8-.14 1.94-.62 2.49.63.08.48.16.96.23 1.44-2.65-.21-5.22.47-7.83.7-1.74.15-3.49.34-5.23.56-.73.09-1.39.3-2.01.69-.34-.51-.22-1.1-.25-1.66Z" style="fill:#c2e05d"/><path d="M75.39 132.46c-.63.28-1.29.23-1.95.22-.21.14-.41.13-.6-.03-.34-.38-.42-.85-.47-1.33-.44-4.09-.9-8.17-1.34-12.25-.06-.55-.2-1.14.46-1.47.4-.03.8-.06 1.21-.08.38.29.51.69.56 1.14.34 3.57 1.07 7.09 1.59 10.63.16 1.06.2 2.14.55 3.17Z" style="fill:#9ec80c"/><path d="M84.93 114.49c1.58 4.37 3.45 8.64 4.9 13.06.14.41.23.97.85 1.04-.67.39-1.38.64-2.14.76-.44-.15-.56-.55-.68-.93-1.28-3.99-2.84-7.89-4.18-11.86-.17-.51-.63-1.1.04-1.62l1.2-.45Z" style="fill:#7abc16"/><path d="M86.61 130.02c-.53.25-1.08.46-1.68.49-.48-.19-.55-.65-.66-1.07-1.15-4.23-2.47-8.4-3.66-12.61-.09-.3-.24-.6 0-.9.56-.16 1.12-.33 1.67-.49.8 1.48 1.13 3.13 1.64 4.71.9 2.8 1.97 5.54 2.69 8.39.12.49.36.99 0 1.48Z" style="fill:#82bf14"/><path d="M91.65 111.35c2.1 4.1 4.23 8.18 6.54 12.17.24.41.45.84.67 1.27-.35.35-.78.53-1.24.68-.75.32-1.02-.29-1.25-.74-1.43-2.85-3.07-5.59-4.37-8.51-.37-.84-.82-1.63-1.24-2.45-.27-.52-.69-1-.53-1.66.48-.25.95-.5 1.43-.75Z" style="fill:#65b51d"/><path d="M82.07 131.24c-.69.05-.83-.41-.98-.95-1.12-3.94-1.85-7.97-2.86-11.93-.15-.58-.32-1.15-.49-1.72.64-.15 1.27-.31 1.91-.46 1.2 4.48 2.25 9 3.48 13.47.13.46.25.93-.11 1.36-.28.23-.61.24-.95.23Z" style="fill:#8bc111"/><path d="M.47 71.5c-.36-1.1-.2-2.24-.19-3.36 1.42-.65 2.93-.65 4.44-.58 3.09.14 6.2-.03 9.29.22.4.03.8 0 1.17.16.49.26.18.77.36 1.13 0 .09.01.18.02.26-.82.64-1.79.59-2.74.59-3.58.02-7.15.22-10.72.44-.72.04-1.21.31-1.46.99-.05.05-.11.1-.16.14Z" style="fill:#b5dd6c"/><path d="M30.23 119.96c1.68-4.25 3.37-8.49 5.05-12.74 1.08.68 2.21 1.29 3.17 2.15-.87.46-1.23 1.36-1.68 2.13-.83 1.43-1.8 2.72-3.01 3.85-1.29 1.21-1.79 3.01-3.1 4.21-.14.13-.29.26-.44.39Z" style="fill:#e8e20b"/><path d="M75.39 132.46c-.81-.19-.69-.95-.74-1.45-.35-3.74-1.18-7.41-1.68-11.13-.11-.78 0-1.59-.28-2.35.54-.23 1.11-.22 1.68-.22.24 3.37.9 6.68 1.53 9.99.23 1.21.43 2.42.64 3.63.08.47.14.95.52 1.29-.53.27-1.1.23-1.67.24Z" style="fill:#9ac60d"/><path d="M33.76 27.34c-3.47-3.48-6.78-7.1-10.06-10.75-.12-.13-.13-.36-.2-.55.4-.5.88-.89 1.44-1.2 1.9 2.3 3.96 4.47 5.92 6.72 1.05 1.2 2.09 2.41 3.18 3.58.35.38.7.77.9 1.26-.26.49-.81.6-1.18.95Z" style="fill:#30b7e5"/><path d="m.53 60.21.24-2.14c.74-.35 1.51-.16 2.23-.04 3.71.61 7.45.99 11.15 1.64.59.1 1.2.13 1.68.56-.03.66.11 1.33-.21 1.96-4.89-.79-9.82-1.34-14.75-1.86-.12-.01-.23-.06-.34-.11Z" style="fill:#a0d883"/><path d="M28.77 11.95c.91 1.28 1.71 2.66 2.76 3.82 1.73 1.92 3.02 4.16 4.71 6.11.59.69 1.26 1.32 1.68 2.15-.24.51-.89.55-1.17 1.02-1.14-.88-2.01-2.03-2.85-3.17-1.9-2.6-4.09-4.96-6.1-7.47-.34-.42-.8-.83-.46-1.47l1.43-.98Z" style="fill:#27b3eb"/><path d="M71.49 117.6c-.53 1.17-.05 2.37.1 3.5.44 3.37.72 6.76 1.11 10.13.06.47.16.93.24 1.4-.26.32-.67.03-.95.23-.32.03-.64.05-.96.08-.32-3.67-.7-7.34-.93-11.01-.09-1.39-.43-2.76-.28-4.16.56-.06 1.12-.11 1.67-.17Z" style="fill:#a2c90b"/><path d="M83.02 131.01c.06-.65-.19-1.25-.35-1.86-1.03-4.03-2.09-8.05-3.15-12.07-.09-.35-.04-.62.13-.9.32-.08.65-.17.97-.25 1.47 4.61 2.81 9.25 4.08 13.91.06.23.16.45.23.67-.6.29-1.24.47-1.91.5Z" style="fill:#87c012"/><path d="M17.47 80.84c-.36-.22-.71-.24-1.14-.13-4.57 1.1-9.15 2.18-13.73 3.27-.26-.53-.47-1.08-.44-1.69 1.35-.94 2.97-1.1 4.5-1.37 3.01-.54 5.96-1.36 8.97-1.87.47-.08.94-.21 1.37.13.15.56.31 1.11.46 1.67Z" style="fill:#cfe24d"/><path d="M1.41 54.21c.04-.83.19-1.63.51-2.4 1.48.75 3.12.95 4.71 1.27 3 .62 5.94 1.53 8.97 2.03.39.06.78.17 1.01.56-.04.49-.02.99-.28 1.43-.35.3-.75.2-1.14.13-4.2-.78-8.36-1.78-12.58-2.5-.43-.07-.88-.14-1.19-.51Z" style="fill:#93d590"/><path d="M4.07 44.37c0-.53.25-.98.5-1.43.47-.38.91-.1 1.34.07 3.01 1.13 6.03 2.22 9 3.45.77.32 1.6.47 2.38.77.59.22 1.21.42 1.59.99l-.45 1.2c-.4.33-.81.2-1.24.07-4.1-1.3-8.06-2.97-12.16-4.26-.42-.13-.97-.2-.96-.85Z" style="fill:#7ccfa6"/><path d="M16.6 55.67c-4.63-1.04-9.26-2.09-13.89-3.1-.5-.11-.85-.17-.79-.76 0-.33-.03-.68.23-.95.46-.39.97-.26 1.48-.14 3.94.94 7.92 1.75 11.82 2.89.54.16 1.07.32 1.54.63-.13.48-.25.96-.38 1.44Z" style="fill:#8fd494"/><path d="M.53 60.21c.77-.43 1.53-.09 2.31-.02 4.01.37 7.99.97 11.99 1.46.38.05.73.04.78.53-.01.31-.03.61-.04.92-.32.3-.71.32-1.11.29-4.11-.39-8.22-.71-12.32-1.21-.58-.07-1.21-.06-1.67-.52l.06-1.44Z" class="cls-63"/><path d="M106.73 119.71c-1.38-1.32-2.4-2.93-3.49-4.47-1.85-2.62-3.7-5.23-5.61-7.8.29-.46.78-.65 1.21-.93 1.88 2.56 3.75 5.13 5.64 7.68.92 1.25 1.88 2.46 2.81 3.7.25.33.5.63.95.64-.42.49-.94.86-1.5 1.18Z" style="fill:#4cad26"/><path d="M94.59 126.95c-.42-.16-.56-.54-.72-.9-1.95-4.29-3.89-8.58-5.84-12.86l1.23-.63c.44.13.6.51.77.86 1.99 4.16 4.01 8.31 6.1 12.42.05.11.07.23.07.35-.47.38-1.02.6-1.6.76Z" style="fill:#6bb71b"/><path d="M14.36 25.62c2.39 1.81 4.77 3.63 7.16 5.43 1.67 1.26 3.36 2.48 5.04 3.72-.25.32-.49.65-.74.97-.79.29-1.24-.36-1.78-.69-1.53-.93-3-1.96-4.41-3.06-1.76-1.37-3.6-2.63-5.43-3.9-.39-.27-1.11-.48-.79-1.25.23-.47.51-.91.94-1.23Z" style="fill:#50c2cd"/><path d="M27.34 12.93c.47 1.64 1.78 2.7 2.85 3.87 1.77 1.93 3.18 4.13 4.88 6.11.59.68 1.38 1.21 1.67 2.14-.31.22-.62.44-.93.67-.38.13-.58-.15-.8-.37-1.18-1.24-2.36-2.47-3.41-3.81-1.72-2.18-3.6-4.23-5.3-6.42-.23-.3-.63-.54-.44-1.02.49-.38.98-.77 1.47-1.15Z" style="fill:#2bb5e9"/><path d="M22.76 93.09c-3.47 1.83-7.05 3.41-10.67 4.92-1.03.43-2.21.78-2.96 1.76-.33-.41-.66-.83-.75-1.37-.12-.59.34-.77.73-.92 3.85-1.51 7.42-3.61 11.21-5.25.55-.24 1.1-.7 1.79-.36.3.36.62.71.67 1.22Z" style="fill:#e4e62d"/><path d="M18.88 48.22c-4.54-1.72-9.07-3.44-13.61-5.15-.22-.08-.46-.09-.7-.13.13-.6.35-1.17.69-1.69.98-.23 1.71.44 2.54.72.63.21 1.2.58 1.84.78 2.97 1.03 5.78 2.45 8.75 3.48.37.13.78.2 1.03.55-.18.48-.37.96-.55 1.44Z" style="fill:#78ceaa"/><path d="M18.94 20.35c.39 1.21 1.43 1.9 2.31 2.64 2.88 2.41 5.67 4.93 8.41 7.48.13.12.35.15.53.22-.33.32-.66.65-1 .97-.54.32-.81-.14-1.1-.42-2.73-2.63-5.84-4.8-8.67-7.31-.48-.42-.96-.84-1.38-1.31-.25-.29-.6-.58-.29-1.03.31-.49.7-.91 1.19-1.24Z" style="fill:#41bdd9"/><path d="M4.07 44.37c.19.29.5.38.8.48 4.24 1.49 8.48 2.99 12.73 4.47.25.09.55.07.82.09l-.48 1.44c-.35.27-.68.07-1.02-.04-4.07-1.25-8.08-2.66-12.12-3.99-.51-.17-1.26-.17-1.22-1.03.05-.51.17-1 .49-1.43Z" style="fill:#80d0a2"/><path d="M15.78 72.2c-1.12-.46-2.28-.23-3.42-.19-1.89.08-3.78.28-5.67.44-1.81.15-3.62.33-5.43.49-.69.06-.48.6-.55.99-.36-.78-.2-1.62-.23-2.43l.03-.02c.48-.43 1.09-.5 1.68-.54 3.78-.25 7.56-.54 11.34-.76.7-.04 1.45-.16 2.07.36.14.55.28 1.09.2 1.67Z" style="fill:#bbde65"/><path d="M3.58 45.8c.18.51.67.53 1.07.66 3.91 1.29 7.82 2.56 11.74 3.84.53.17 1.04.37 1.56.56-.15.4-.29.8-.44 1.2-.38.3-.77.12-1.14 0-4.13-1.32-8.31-2.49-12.44-3.8-.45-.14-1.08-.23-.82-1.01.03-.53.16-1.02.47-1.46Z" style="fill:#84d19e"/><path d="M8.34 34.76c.21-.64.54-1.22.99-1.72 3.96 2.52 8.18 4.6 12.19 7.04.34.2.72.35.95.7-.23.4-.46.8-.68 1.2-.49.32-.83-.08-1.18-.28-3.63-1.97-7.26-3.94-10.93-5.84-.52-.27-1.12-.45-1.33-1.11Z" style="fill:#64c8bc"/><path d="M.46 61.65c2.63.29 5.27.48 7.89.9 1.44.23 2.93.02 4.38.3.93.17 1.89.18 2.83.26l-.03 5.97c-.28-.27-.15-.62-.19-.94-.4-.49-.34-1.07-.33-1.64-.02-.42-.01-.84-.03-1.25-.22-.74-.86-.75-1.44-.79-3.4-.23-6.81-.4-10.22-.52-.99-.03-1.99.01-2.88-.56-.12-.58-.16-1.16.02-1.73Z" style="fill:#a7da7b"/><path d="M22.1 91.88c-2.09.77-4.09 1.73-6.07 2.75-2.12 1.09-4.32 2.02-6.5 3-.43.2-.92.28-1.15.78-.44-.51-.68-1.12-.93-1.73 4.54-1.9 9.09-3.8 13.63-5.69.14-.06.31-.03.47-.05 0 .42.41.61.54.95Z" style="fill:#e4e62f"/><path d="M10.78 30.66c.14-.45.41-.81.75-1.13 1.47.73 2.82 1.64 4.16 2.58 2.51 1.77 5.22 3.24 7.76 4.97.33.22.71.39.8.83-.14.38-.35.71-.65.99-.52.31-.93-.01-1.32-.27-3.48-2.26-7.04-4.38-10.6-6.52-.51-.3-1.22-.59-.9-1.45Z" style="fill:#5ac5c4"/><path d="M6.75 37.67c.31-.56.62-1.11.93-1.67 1.97.77 3.89 1.64 5.72 2.67 2.36 1.34 4.87 2.4 7.2 3.8.24.14.52.22.67.48-.22.4-.44.8-.65 1.2-.38.18-.7-.03-1.02-.18-4.1-1.95-8.15-4-12.3-5.84-.23-.1-.39-.27-.55-.45Z" style="fill:#6bcab6"/><path d="M27.54 33.58c-4.04-2.87-7.71-6.2-11.66-9.19-.12-.09-.19-.25-.28-.38.2-.43.54-.72.9-1 .51-.28.83.07 1.15.36 3.23 2.9 6.65 5.56 9.98 8.34.3.25.63.5.71.93-.27.31-.53.62-.8.93Z" style="fill:#47bfd4"/><path d="M24.24 37.91c-3.79-2.41-7.58-4.82-11.36-7.25-.49-.32-1.08-.54-1.36-1.13.15-.38.33-.74.68-.99.55-.34.92.09 1.28.34 3.52 2.48 7.11 4.83 10.73 7.16.33.22.66.45.73.9-.23.32-.46.65-.69.97Z" style="fill:#56c4c8"/><path d="M16.98 54.23c-1.82-.13-3.48-.89-5.24-1.27-2.85-.62-5.68-1.36-8.53-2.03-.34-.08-.71-.05-1.06-.08-.03-.69.17-1.32.49-1.92 1.57.09 2.98.77 4.47 1.15 2.73.71 5.46 1.39 8.17 2.17.7.2 1.52.22 1.95.99-.08.33-.17.65-.25.98Z" style="fill:#8bd398"/><path d="M21.28 42.94c-.98-.02-1.62-.77-2.44-1.14-3.21-1.46-6.18-3.41-9.46-4.73-.62-.25-1.21-.59-1.69-1.07-.01-.53.41-.83.66-1.23 2.87 1.55 5.74 3.11 8.61 4.65 1.61.86 3.22 1.71 4.84 2.57l-.51.96Z" style="fill:#68c9b9"/><path d="M28.34 32.64c-3.15-2.7-6.53-5.13-9.58-7.96-.67-.62-1.28-1.42-2.25-1.67.36-.52.71-1.06 1.25-1.42.16.87.91 1.3 1.48 1.81 3.12 2.77 6.56 5.15 9.53 8.09.1.1.29.12.43.17-.15.44-.51.7-.85.98Z" style="fill:#44bed6"/><path d="M133.1 61.65c-.18-.57-.38-.94-1.16-1-1.84-.15-3.35-1.17-4.82-2.2 1.64-1.25 3.28-2.49 5.06-3.84.53 2.43.79 4.73.92 7.05Z" style="fill:#019347"/><path d="M17.23 53.25c-3.33-1.22-6.82-1.85-10.21-2.86-1.48-.44-3.01-.7-4.39-1.45 0-.6.19-1.16.48-1.68.02.46.38.58.72.69 4.56 1.38 9.11 2.75 13.67 4.12.06.43-.17.8-.28 1.19Z" style="fill:#88d29b"/><path d="M61.18 117.57c-.23 2.84-.49 5.67-.69 8.51-.13 1.9.09 3.82-.28 5.7-.21 1.06.77.75 1.19 1.08-.87-.09-1.75-.18-2.62-.26-.37-.35-.32-.8-.26-1.23.57-3.9.35-7.86.86-11.77.09-.7.03-1.44.6-2 .4-.05.8-.19 1.2-.03Z" style="fill:#bcd206"/><path d="M17.01 79.17c-2.46.39-4.87 1.02-7.32 1.49-2.52.48-5.01 1.12-7.53 1.63-.24-.36-.27-.76-.26-1.17.03-.92.8-.88 1.37-1 3.35-.69 6.72-1.28 10.1-1.76 1.12-.16 2.2-.69 3.37-.39l.27 1.2Z" style="fill:#cce251"/><path d="M59.98 117.6c-.23 2.2-.58 4.4-.67 6.61-.08 1.97-.03 3.95-.28 5.91-.11.82-.16 1.65-.24 2.48-.56-.07-1.12-.15-1.68-.22.53-2.27.71-4.59.95-6.9.28-2.63.51-5.26.78-7.89 0-.1.13-.19.21-.28.38-.11.66.1.94.29Z" style="fill:#bfd305"/><path d="M1.41 54.21c3.13.49 6.23 1.09 9.32 1.77 1.85.41 3.72.74 5.58 1.11-.01.34.06.69-.18.98-.43.32-.91.22-1.38.15-4.15-.58-8.25-1.44-12.39-2.07-.43-.07-.87-.14-1.18-.51.04-.49-.09-1 .23-1.44Z" style="fill:#97d68c"/><path d="M25.88 14.08c2.23 2.68 4.48 5.34 6.67 8.05 1.02 1.26 2.2 2.38 3.28 3.58-.29.23-.59.45-.88.68-.9-.49-1.41-1.37-2.07-2.09-2.34-2.55-4.58-5.18-6.87-7.78-.45-.51-.92-1-1.06-1.69.23-.35.56-.58.94-.75Z" style="fill:#2eb6e7"/><path d="M22.47 40.78c-1.9-.56-3.42-1.84-5.11-2.78-2.44-1.34-4.94-2.58-7.25-4.16-.32-.22-.76-.31-.78-.81.14-.45.35-.87.71-1.19 3.45 2.14 6.94 4.18 10.39 6.32.87.54 1.95.76 2.58 1.66-.18.32-.36.64-.55.96Z" style="fill:#60c7bf"/><path d="M58.07 16.08c-.64.09-.76-.38-.89-.83-.13-.44-.22-.89-.32-1.34.37-1.65.44-3.4 1.59-4.8 1.26.16 1.68 1.12 2.01 2.16.1 1.24.15 2.49.45 3.71.09.35.18.6.57.63-1.12.26-2.26.4-3.4.46Z" style="fill:#039df7"/><path d="M15.83 60.22c-2.36-.33-4.71-.66-7.07-.98-2.36-.32-4.71-.63-7.07-.95-.31-.04-.62-.15-.92-.23-.06-.42.01-.82.21-1.2.44-.39.96-.32 1.47-.23 4.07.73 8.17 1.21 12.26 1.81 1.15.17 1.28.35 1.13 1.56.02.08.01.15-.01.22Z" style="fill:#9cd787"/><path d="M1.19 77.5c-.09-.76.52-.86.99-.92 1.56-.22 3.14-.35 4.71-.53 2.47-.29 4.93-.6 7.4-.88.68-.08 1.43-.35 1.96.39.02.17.03.33.05.5-.41.44-.96.53-1.52.59-3.67.4-7.3 1.08-10.96 1.5-.83.1-1.64.28-2.41.6-.28-.38-.22-.81-.22-1.24Z" style="fill:#c5e059"/><path d="M96.19 126.19c-.45-.2-.55-.66-.74-1.04-2.07-4.2-4.13-8.39-6.2-12.59.32-.15.65-.3.97-.45 2.07 4.05 4.14 8.1 6.21 12.14.27.52.44 1.15 1.18 1.22-.42.35-.9.58-1.43.72Z" style="fill:#68b61c"/><path d="M23.01 39.82c-3.32-1.61-6.38-3.65-9.51-5.57-1.2-.73-2.66-1.1-3.46-2.41.14-.46.37-.86.74-1.18.35 1.32 1.64 1.57 2.58 2.12 3.05 1.8 6.05 3.69 9.04 5.58.38.24.74.47 1.19.53-.19.31-.39.62-.58.93Z" style="fill:#5ec6c2"/><path d="M15.58 70.53c-3.69.11-7.37.3-11.05.67-1.33.14-2.69.18-4.04.27C.32 70.45.6 70.06 1.78 70c3.92-.2 7.84-.43 11.77-.45.67 0 1.33-.15 2-.23 0 .4.02.8.03 1.2Z" style="fill:#b8de69"/><path d="M16.74 77.97c-2.98.84-6.07 1.06-9.09 1.67-1.63.33-3.26.64-4.89.94-.38.07-.7.16-.86.54-.28-.35-.23-.77-.24-1.18-.25-.71.32-.8.75-.94 1.03-.32 2.12-.34 3.18-.54 3.21-.63 6.45-1.05 9.68-1.58.43-.07.87-.18 1.26.12.07.32.15.64.22.96Z" style="fill:#cae154"/><path d="M5.72 40.05c.13-.55.39-1.04.73-1.49 2.53 1.42 5.28 2.39 7.9 3.61 1.62.75 3.28 1.43 4.86 2.25.35.18.74.31.95.69-.04.37-.19.7-.44.98-.99.02-1.85-.44-2.69-.83-3.51-1.6-7.18-2.85-10.6-4.64-.28-.15-.61-.22-.71-.57Z" style="fill:#72ccb0"/><path d="M16.52 77.01c-4.44.72-8.87 1.42-13.3 2.18-.56.09-1.32-.06-1.56.76-.28-.36-.23-.79-.24-1.2.45-1.24 1.64-.82 2.46-.96 4.13-.67 8.28-1.17 12.43-1.73.07.32.14.64.22.96Z" style="fill:#c7e156"/><path d="M15.84 60c.04-.72-.11-1.13-1.01-1.25-3.68-.46-7.36-1.03-11.03-1.54-.94-.13-1.86-.42-2.82-.35 0-.41-.09-.84.21-1.2 3.11.52 6.23 1.04 9.34 1.55 1.87.3 3.74.59 5.62.88-.12.63.08 1.32-.3 1.91Z" style="fill:#9ad789"/><path d="M5.72 40.05c3.54 1.53 7.09 3.02 10.61 4.61 1.12.51 2.39.66 3.4 1.43-.04.25-.07.52-.29.69-2.34-.52-4.51-1.52-6.67-2.52-1.04-.48-2.25-.55-3.17-1.32-1.19-.62-2.37-1.27-3.65-1.7a.697.697 0 0 1-.48-.49c.06-.24-.02-.54.26-.71Z" class="cls-72"/><path d="M86.61 130.02c-.36-2.34-1.26-4.52-1.97-6.76-.77-2.43-1.59-4.84-2.41-7.26-.07-.22-.02-.39.05-.57.06-.06.13-.08.21-.05.7-.07.86.49 1.02.95 1.35 3.97 2.82 7.9 4.04 11.92.15.48.39.99 0 1.49-.32.09-.64.18-.96.28Z" style="fill:#7ebe15"/><path d="M6.75 37.67c1.46.31 2.73 1.12 4.06 1.72 3.3 1.5 6.54 3.16 9.8 4.75-.1.24-.19.47-.29.71-1.58-.31-2.89-1.27-4.34-1.9-2.8-1.22-5.6-2.44-8.35-3.78-.48-.24-1.22-.4-.92-1.25l.03-.25Z" class="cls-145"/><path d="M87.57 129.74c-.76-3.37-2.04-6.58-3.15-9.85-.38-1.12-.77-2.24-1.16-3.37-.15-.45-.27-.92-.77-1.14.37-.26.79-.37 1.23-.44-.21.97.33 1.77.62 2.61 1.37 3.95 2.79 7.87 4.2 11.8-.28.24-.63.32-.98.38Z" style="fill:#7ebd15"/><path d="M13.42 26.84c.06.14.08.35.18.42 4.13 2.74 7.84 6.09 12.22 8.48-.12.31-.32.56-.59.75-.9-.03-1.44-.74-2.12-1.17-3.23-2.06-6.22-4.45-9.38-6.61-.4-.27-.97-.49-.81-1.18 0-.35.24-.53.5-.69Z" style="fill:#53c3cb"/><path d="M12.93 27.53c.43.76 1.21 1.11 1.88 1.59 3.47 2.47 6.95 4.92 10.43 7.37-.1.15-.21.3-.31.45-2.42-1.61-4.84-3.21-7.26-4.83-1.55-1.04-3.09-2.11-4.63-3.17-.26-.18-.5-.41-.85-.41.13-.42.39-.74.73-1Z" style="fill:#54c3cb"/><path d="M6.72 37.92c.02.68.62.77 1.06.99 4.14 2.06 8.45 3.77 12.55 5.94l-.17.26c-1.99-.89-3.98-1.78-5.97-2.66-2.28-1.01-4.57-2.02-6.85-3.04-.39-.17-.86-.29-.89-.85 0-.25.05-.49.27-.65Z" class="cls-145"/><path d="M30.71 105.08c-.1.6-.34 1.19-.77 1.58-1.56 1.41-2.57 3.21-3.61 4.99-.5.85-1.5 1.32-1.85 2.3-.22 1.2-.92 1.97-2 2.19-1.14-.83-2.12-1.83-3.06-2.87.01-.4.23-.67.54-.88 2.96-1.97 5.92-3.95 8.9-5.9.66-.43.98-1.29 1.86-1.42Z" style="fill:#eee511"/><path d="M22.47 116.15c.9-.52 1.46-1.35 2-2.19 1.22-.19 2.17-1.07 3.36-1.34 1.35-.3 2.47-1.04 3.6-1.78-1.68 2.47-3.09 5.14-5.1 7.38-.22.24-.43.47-.43.82-1.22-.86-2.39-1.79-3.42-2.88Z" style="fill:#ede40d"/><path d="M15.34 66.46v1.68c-5.02-.01-10.05-.47-15.07 0-.02-.24-.05-.47-.07-.71.02-.4.04-.81.07-1.21.66-.54 1.44-.4 2.18-.3 1.71.22 3.4.14 5.11.02 2.46-.17 4.91.22 7.37.29.16 0 .29.12.41.23Z" style="fill:#b1dc71"/><path d="M58.54 9.12c-.85 1.5-.79 3.32-1.68 4.8l-.96-2.64c-.64-3.16-1.7-6.23-1.83-9.48 0-.2.02-.39.15-.55 1.03-.25 2.05-.5 3.12-.5.37.29.51.69.58 1.13.29 1.97.53 3.94.87 5.9.08.47.14.95-.25 1.35Z" style="fill:#039efa"/><path d="M58.54 9.12 57.34.74c1.18-.29 2.38-.38 3.59-.45-.42 3.65.38 7.35-.47 10.99-.49-.85-1.21-1.5-1.92-2.16Z" style="fill:#019cf9"/><path d="M54.22 1.24c.34 1.11.58 2.23.48 3.4-.06.66.14 1.26.38 1.86.61 1.54 1.01 3.11.83 4.78-1.27-.86-1.72-2.18-2.04-3.59-.09-.38-.18-.81-.55-1.03-1.78-1.07-1.97-2.96-2.45-4.7l3.36-.72Z" style="fill:#05a0fb"/><path d="M15.34 66.46c-1.98 0-3.96.13-5.93-.23-1.15-.21-2.29.16-3.43.24-1.92.13-3.8-.37-5.71-.25-.02-.16-.05-.33-.07-.49.03-.32.05-.63.08-.95.9-.64 1.93-.41 2.89-.33 3.45.28 6.91.19 10.36.43.63.04 1.29-.09 1.82.38v1.2Z" style="fill:#addb74"/><path d="M15.35 65.26c-3.61.11-7.2-.3-10.81-.3-1.4 0-2.84-.16-4.26-.18 0-.48.01-.96.02-1.44.06-.12.12-.11.18 0 4.46.24 8.93.46 13.39.76.63.04 1.66-.06 1.48 1.17Z" style="fill:#abdb78"/><path d="M5.46 40.76c1.41.67 2.99 1.02 4.13 2.18-1.54-.32-2.85-1.22-4.34-1.69.07-.17.13-.33.2-.5Z" class="cls-72"/><path d="M.48 63.34H.3c-.01-.57-.14-1.15.17-1.69v1.69Z" class="cls-63"/><path d="M71.98 132.87c.26-.3.64-.15.95-.23.17.02.34.03.51.05-.46.23-.96.2-1.46.18Z" class="cls-1"/><path d="M119.42 25.88c3.16 4.08 5.84 8.51 7.98 13.21l-60.64 44.7L41.43 67.9V48.81l25.33 15.88 52.67-38.81Z" class="cls-26"/></svg>