<svg xmlns="http://www.w3.org/2000/svg" viewBox="0 0 489.37 133.23" height="40">
  <path fill="#21a038" d="m66.61 64.76-25.36-15.9v19.11l25.36 15.9 60.7-44.72c-2.14-4.7-4.82-9.14-7.98-13.22L66.62 64.76Z"/>
  <path fill="#21a038" d="M133.22 66.65c0-4-.36-8-1.07-11.93L117.81 65.3c0 .44.02.91.02 1.37 0 28.32-22.95 51.27-51.27 51.27-28.32 0-51.27-22.95-51.27-51.27 0-28.32 22.95-51.27 51.27-51.27 10.32 0 20.4 3.12 28.93 8.94l12.96-9.55C79.82-8.33 37.89-3.85 14.78 24.78c-23.11 28.62-18.63 70.56 10 93.67s70.56 18.63 93.67-10a66.6 66.6 0 0 0 14.78-41.8ZM388 39.89l18.11-13.34H345.5v80.16h60.61V93.36H362.8V72.84h36.94V59.49H362.8v-19.6H388zM299.75 57.8H278.7V39.9h33.6l18.11-13.37H261.4v80.18h36.12c20.28 0 31.88-9.18 31.88-25.18S318.87 57.8 299.76 57.8Zm-3.01 35.56H278.7V71.14h18.04c10.98 0 16.09 3.72 16.09 11.11.02 7.55-5.41 11.11-16.09 11.11Zm158.49-66.83h-33.02v80.18h17.3V84h15.72c21.06 0 34.14-11.07 34.14-28.77s-13.1-28.71-34.14-28.71Zm-.37 44.11h-15.33V39.9h15.33c11.09 0 17.19 5.46 17.19 15.38s-6.12 15.38-17.21 15.38l.02-.02ZM231.71 89.36a30.999 30.999 0 0 1-14.93 3.74c-15.6 0-26.92-11.13-26.92-26.45s11.32-26.45 26.91-26.45a26.36 26.36 0 0 1 15.73 4.92l12.4-9.14-.83-.75c-7.24-6.37-16.92-9.73-27.99-9.73-12 0-22.9 4.05-30.68 11.4s-12.11 17.8-12.11 29.31 4.29 22.11 12.09 29.72 18.69 11.85 30.61 11.85 23.36-4.35 30.74-12.26l-11.19-8.25-3.84 2.08Z"/>
</svg>
