<svg xmlns="http://www.w3.org/2000/svg" viewBox="0 0 211.92 133.09">
  <defs>
    <linearGradient id="a" x1="0" x2="211.92" y1="133.15" y2="3.93" gradientTransform="matrix(1 0 0 -1 0 135.09)" gradientUnits="userSpaceOnUse">
      <stop offset="0" stop-color="#3f3cf2"/>
      <stop offset="1" stop-color="#2432b4"/>
    </linearGradient>
  </defs>
  <path d="M8.48 0C3.8 0 0 3.8 0 8.48v116.13c0 4.68 3.8 8.48 8.48 8.48h194.97c4.68 0 8.48-3.8 8.48-8.48V8.48c0-4.68-3.8-8.48-8.48-8.48H8.48Zm118.09 39.66c5.16 0 9.29 1.14 11.93 2.2l-1.8 11.33-1.19-.6c-2.46-1.06-5.61-2.08-9.96-2.01-5.21 0-7.62 2.32-7.62 4.5-.03 2.45 2.81 4.06 7.46 6.48 7.68 3.73 11.22 8.26 11.17 14.21-.1 10.85-9.18 17.87-23.17 17.87-5.97-.07-11.71-1.33-14.82-2.79l1.87-11.71 1.72.83c4.37 1.95 7.2 2.74 12.52 2.74 3.82 0 7.93-1.6 7.96-5.11.02-2.29-1.72-3.92-6.89-6.48-5.05-2.5-11.74-6.69-11.66-14.21.08-10.16 9.34-17.26 22.48-17.26ZM18.74 41.32h21.48c2.89.11 5.23 1.04 6.03 4.18l4.63 23.89v.01l1.39 7.16 13.04-35.25h14.11L58.45 92.9H44.36L33.14 51.28c6.68 3.54 12.36 7.63 15.65 13.26-.85-1.78-1.97-3.79-3.4-5.77-1.67-2.31-5.26-5.29-6.77-6.56-5.24-4.42-12.36-7.99-20.05-9.87l.17-1.03Zm66.29.06h13.79l-8.63 51.51H76.4l8.63-51.51Zm77.91 0h10.45l10.94 51.51h-12.54s-1.24-5.92-1.65-7.72c-1.97 0-15.76-.02-17.31-.02-.53 1.39-2.85 7.74-2.85 7.74h-14.19l20.07-47.23c1.42-3.36 3.84-4.28 7.08-4.28Zm1.03 13.85c-.68 1.92-1.86 5.01-1.78 4.87 0 0-4.25 11.32-5.36 14.27h11.16c-1.04-4.92-2.07-9.83-3.11-14.74l-.91-4.4Z" style="fill:url(#a)"/>
</svg>
